<svg width="144" height="158" viewBox="0 0 144 158" fill="none" xmlns="http://www.w3.org/2000/svg">
<path d="M11.8695 1.55945C6.53754 -1.38715 0 2.46943 0 8.56139V149.439C0 155.531 6.53755 159.387 11.8695 156.441L139.33 86.0019C144.837 82.9584 144.837 75.0416 139.33 71.9981L11.8695 1.55945Z" fill="#1E2E28"/>
<path d="M52.6972 37C31.3728 37 32.7044 46.296 32.7044 46.296L32.7282 55.9265H53.0776V58.818H24.6455C24.6455 58.818 11 57.2624 11 78.8916C11 100.521 22.9101 99.7537 22.9101 99.7537H30.0181V89.7169C30.0181 89.7169 29.635 77.7445 41.738 77.7445C53.8411 77.7445 61.921 77.7445 61.921 77.7445C61.921 77.7445 73.2605 77.9288 73.2605 66.728C73.2605 55.5271 73.2605 48.2077 73.2605 48.2077C73.2605 48.2077 74.9822 37 52.6972 37ZM41.4765 43.4761C43.5011 43.4761 45.1375 45.121 45.1375 47.1563C45.1375 49.1915 43.5011 50.8364 41.4765 50.8364C39.4519 50.8364 37.8155 49.1915 37.8155 47.1563C37.8155 45.121 39.4519 43.4761 41.4765 43.4761Z" fill="white"/>
<path d="M53.3028 121C74.6272 121 73.2956 111.704 73.2956 111.704L73.2718 102.074H52.9224V99.182H81.3545C81.3545 99.182 95 100.738 95 79.1084C95 57.4793 83.0899 58.2463 83.0899 58.2463H75.9819V68.2831C75.9819 68.2831 76.365 80.2555 64.262 80.2555C52.1589 80.2555 44.079 80.2555 44.079 80.2555C44.079 80.2555 32.7395 80.0712 32.7395 91.272C32.7395 102.473 32.7395 109.792 32.7395 109.792C32.7395 109.792 31.0178 121 53.3028 121ZM64.5235 114.524C62.4989 114.524 60.8625 112.879 60.8625 110.844C60.8625 108.809 62.4989 107.164 64.5235 107.164C66.5481 107.164 68.1845 108.809 68.1845 110.844C68.1845 112.879 66.5481 114.524 64.5235 114.524Z" fill="white"/>
</svg>
